<?xml version="1.0" encoding="UTF-8"?>
<svg id="Calque_1" data-name="Calque 1" xmlns="http://www.w3.org/2000/svg" viewBox="0 0 133.47 24.07">
  <defs>
    <style>
      .cls-1 {
        fill: #d1d3d4;
      }
    </style>
  </defs>
  <path class="cls-1" d="m.77,12.27c.13-.07.27-.12.41-.17.48-.16.99-.23,1.48-.33.52-.11,1.04-.24,1.56-.36,1.08-.26,2.16-.52,3.24-.78.51-.12,1.02-.24,1.53-.36.11-.03.25-.08.36-.08,1.59-.36,3.18-.72,4.77-1.07s3.18-.69,4.78-1.02,3.19-.65,4.78-.97,3.19-.62,4.79-.91,3.2-.58,4.8-.86,3.2-.54,4.81-.8,3.21-.51,4.81-.74,3.21-.47,4.82-.68,3.22-.43,4.83-.62,3.23-.38,4.84-.56,3.23-.34,4.85-.5,3.24-.3,4.86-.43,3.25-.26,4.87-.37,3.26-.21,4.88-.3,3.26-.16,4.9-.23c1.1-.04,2.19-.08,3.29-.11,25.07-.52,14.1,10.74,38.68,15.3,2.27.43,4.52.88,6.79,1.35,2.06.43,3.36,2.49,2.86,4.54s-2.47,3.22-4.47,2.77c-2.19-.49-4.41-.96-6.61-1.42-23.99-4.82-12.67-16.4-37.14-16.24-2.17.01-4.35.09-6.52.16s-4.37.18-6.55.29-4.37.26-6.55.42-4.37.34-6.55.55-4.36.42-6.54.66-4.36.5-6.53.78-4.35.58-6.52.89-4.34.65-6.5,1-4.33.71-6.49,1.1-4.31.78-6.47,1.19-4.3.84-6.44,1.29-4.28.9-6.42,1.37c-1.02.23-2.06.55-3.12.49-.83-.05-1.66-.29-2.37-.71s-1.31-1.04-1.52-1.85c-.1-.38-.1-.82.1-1.17.13-.23.36-.4.6-.52Z"/>
</svg>